<?xml version="1.0" encoding="UTF-8"?> <svg xmlns="http://www.w3.org/2000/svg" viewBox="0 0 42.47 54.5"><defs><style>.cls-1{fill:#0066b5;}.cls-2{fill:none;stroke:#0066b5;stroke-miterlimit:10;}.cls-3{fill:#e5e5e5;}</style></defs><g id="Layer_2" data-name="Layer 2"><g id="Layer_1-2" data-name="Layer 1"><path class="cls-1" d="M39.63,13.39l-3.49.28A12.49,12.49,0,0,0,34.38,9.8l2.21-3.05a.84.84,0,0,0,.16-.48.62.62,0,0,0-.2-.47L32.8,2.68a.7.7,0,0,0-.95.12L29.17,5.49a13.57,13.57,0,0,0-4.18-1L24.66,1A.59.59,0,0,0,24,.51l-5.37,1a.89.89,0,0,0-.71.78l-.33,3.53a35.46,35.46,0,0,0-4.19,2.5L10.68,6.53a.77.77,0,0,0-1,.21L5.93,11.19a.75.75,0,0,0,0,1L8.1,14.44a34.42,34.42,0,0,0-1.76,4.49l-3.49.95a.9.9,0,0,0-.65.82v5.36a.58.58,0,0,0,.65.59l3.48-.27A12.69,12.69,0,0,0,8.1,30.24L5.89,33.3a.81.81,0,0,0-.16.48.63.63,0,0,0,.2.47l3.79,3.11a.72.72,0,0,0,1-.12l2.68-2.69a13.16,13.16,0,0,0,4.18,1L17.87,39a.57.57,0,0,0,.71.52L24,38.58a.9.9,0,0,0,.71-.78L25,34.26a18,18,0,0,0,4.18-2.5l2.68,1.74a.73.73,0,0,0,.95-.21l3.79-4.45a.71.71,0,0,0,0-1L34.42,25.6a35,35,0,0,0,1.76-4.49l3.45-.94a.89.89,0,0,0,.64-.82V14A.58.58,0,0,0,39.63,13.39ZM21.24,31.32C15,32.42,9.93,28.25,9.93,22A14.08,14.08,0,0,1,21.24,8.73C27.48,7.63,32.56,11.8,32.56,18A14.09,14.09,0,0,1,21.24,31.32Z"></path><path class="cls-2" d="M39.63,13.39l-3.49.28A12.49,12.49,0,0,0,34.38,9.8l2.21-3.05a.84.84,0,0,0,.16-.48.62.62,0,0,0-.2-.47L32.8,2.68a.7.7,0,0,0-.95.12L29.17,5.49a13.57,13.57,0,0,0-4.18-1L24.66,1A.59.59,0,0,0,24,.51l-5.37,1a.89.89,0,0,0-.71.78l-.33,3.53a35.46,35.46,0,0,0-4.19,2.5L10.68,6.53a.77.77,0,0,0-1,.21L5.93,11.19a.75.75,0,0,0,0,1L8.1,14.44a34.42,34.42,0,0,0-1.76,4.49l-3.49.95a.9.9,0,0,0-.65.82v5.36a.58.58,0,0,0,.65.59l3.48-.27A12.69,12.69,0,0,0,8.1,30.24L5.89,33.3a.81.81,0,0,0-.16.48.63.63,0,0,0,.2.47l3.79,3.11a.72.72,0,0,0,1-.12l2.68-2.69a13.16,13.16,0,0,0,4.18,1L17.87,39a.57.57,0,0,0,.71.52L24,38.58a.9.9,0,0,0,.71-.78L25,34.26a18,18,0,0,0,4.18-2.5l2.68,1.74a.73.73,0,0,0,.95-.21l3.79-4.45a.71.71,0,0,0,0-1L34.42,25.6a35,35,0,0,0,1.76-4.49l3.45-.94a.89.89,0,0,0,.64-.82V14A.58.58,0,0,0,39.63,13.39ZM21.24,31.32C15,32.42,9.93,28.25,9.93,22A14.08,14.08,0,0,1,21.24,8.73C27.48,7.63,32.56,11.8,32.56,18A14.09,14.09,0,0,1,21.24,31.32Z"></path><polyline class="cls-2" points="21.24 11.79 21.22 20.03 29.49 18.57"></polyline><polygon class="cls-3" points="0 42.52 42.47 35.27 42.47 23.29 0 30.54 0 42.52"></polygon><polygon class="cls-3" points="0 54.5 42.47 47.25 42.47 35.27 0 42.52 0 54.5"></polygon><path class="cls-1" d="M9.27,49.69a2,2,0,0,1-.46-1.42l1.08-.38a1.89,1.89,0,0,0,.17.86.37.37,0,0,0,.44.21.43.43,0,0,0,.32-.2.71.71,0,0,0,.1-.39,1.06,1.06,0,0,0-.16-.62,2.27,2.27,0,0,0-.52-.49L9.6,46.8A1.86,1.86,0,0,1,9,46.19a1.6,1.6,0,0,1-.2-.87A1.89,1.89,0,0,1,9.26,44a2.15,2.15,0,0,1,1.23-.64,1.1,1.1,0,0,1,1.17.3A2.2,2.2,0,0,1,12,44.91l-1.09.35a2,2,0,0,0-.11-.72.3.3,0,0,0-.37-.18.46.46,0,0,0-.32.22A.72.72,0,0,0,10,45a.88.88,0,0,0,.14.51,1.49,1.49,0,0,0,.42.41l.62.45a2.67,2.67,0,0,1,.7.73,1.92,1.92,0,0,1,.25,1,1.9,1.9,0,0,1-.2.85,1.9,1.9,0,0,1-1.39,1A1.41,1.41,0,0,1,9.27,49.69Z"></path><path class="cls-1" d="M12.81,43.07l2.69-.47v.9l-1.44.25v1.7l1.12-.2v.91l-1.12.19v2l1.46-.26V49l-2.71.48Z"></path><path class="cls-1" d="M16.16,42.48l1.6-.28a2.27,2.27,0,0,1,1.5.11,1.29,1.29,0,0,1,.51,1.22,2.83,2.83,0,0,1-.17,1,1.44,1.44,0,0,1-.6.68l.86,3-1.29.23-.7-2.78-.46.09v2.89l-1.25.22Zm1.62,2.44a.9.9,0,0,0,.62-.34,1.25,1.25,0,0,0,.18-.73,1,1,0,0,0-.16-.67c-.1-.13-.3-.17-.58-.12l-.43.08V45Z"></path><path class="cls-1" d="M20.27,41.76l1.09-.19.73,4.28.69-4.53,1.13-.2-1.17,6.59-1.3.23Z"></path><path class="cls-1" d="M24.55,41l1.25-.22v6.39l-1.25.22Z"></path><path class="cls-1" d="M27.06,46.49A2.31,2.31,0,0,1,26.65,45V42.69A3,3,0,0,1,27.06,41a2,2,0,0,1,1.4-.78,1.38,1.38,0,0,1,1.33.24,1.78,1.78,0,0,1,.4,1.3v.53L29,42.53v-.59a2.86,2.86,0,0,0,0-.46.39.39,0,0,0-.14-.26.43.43,0,0,0-.34-.06.58.58,0,0,0-.44.31,2.06,2.06,0,0,0-.1.69v2.9a1.31,1.31,0,0,0,.12.65.37.37,0,0,0,.42.15.51.51,0,0,0,.42-.3,2,2,0,0,0,.09-.68v-.63L30.19,44v.53a2.56,2.56,0,0,1-.39,1.48,1.94,1.94,0,0,1-1.34.74A1.46,1.46,0,0,1,27.06,46.49Z"></path><path class="cls-1" d="M31,39.87l2.69-.47v.9l-1.44.25v1.7l1.11-.2V43l-1.11.19v2l1.45-.26v.88l-2.7.48Z"></path><path d="M16.65,38.31l1.43-2.52.11-.19c.17-.31.3-.57.39-.77a1.68,1.68,0,0,0,.12-.63.63.63,0,0,0-.11-.43.3.3,0,0,0-.31-.1.55.55,0,0,0-.42.31,1.9,1.9,0,0,0-.11.68v.28l-1.1.19v-.29A2.48,2.48,0,0,1,17,33.41a1.79,1.79,0,0,1,1.21-.71,1.34,1.34,0,0,1,1.16.21,1.38,1.38,0,0,1,.4,1.11,2.11,2.11,0,0,1-.17.87,8.24,8.24,0,0,1-.52,1L19,36l-1.13,2,1.74-.3v.91l-3,.53Z"></path><path d="M21.7,36.81l-1.78.32v-.9l1.53-4,1.3-.22v3.76l.57-.1v.88l-.57.1v1.42l-1.05.19Zm0-.87V33.36l-.9,2.74Z"></path><path d="M25.27,31.54l.65-.11-1.76,6.38-.64.11Z"></path><path d="M27.74,32l-1.6.28v-.88l2.69-.48v.76L27.59,37.2l-1.08.19Z"></path></g></g></svg> 