<?xml version="1.0" encoding="UTF-8"?> <svg xmlns="http://www.w3.org/2000/svg" viewBox="0 0 49.16 60.49"><defs><style>.cls-1{fill:#e5e5e5;}.cls-2{fill:#fff;}.cls-3{fill:none;stroke:#0066b5;stroke-linecap:round;stroke-linejoin:round;stroke-width:0.75px;}.cls-4{fill:#0066b5;}.cls-4,.cls-5{opacity:0.3;}.cls-5,.cls-6,.cls-7{fill:#0066b5;}.cls-6{opacity:0.4;}.cls-8{fill:#fff8f8;}.cls-9{fill:#2eef7c;stroke:#000;stroke-miterlimit:10;}</style></defs><g id="Layer_2" data-name="Layer 2"><g id="Layer_1-2" data-name="Layer 1"><polygon class="cls-1" points="37.75 50.47 0 60.49 0 10.03 37.75 0 37.75 50.47"></polygon><path class="cls-2" d="M21.77,7.29l-.07,3.82.05-3.06a1.88,1.88,0,0,0-.39-1.18Z"></path><path class="cls-2" d="M48.78,18.83v0c0,.1,0,.2,0,.3a.81.81,0,0,1,0,.15.13.13,0,0,1,0,.06c0,.1,0,.19,0,.29a.54.54,0,0,0,0,.15,1.4,1.4,0,0,1-.06.24.65.65,0,0,1,0,.13,1,1,0,0,1-.05.16,1,1,0,0,1-.06.16,5.09,5.09,0,0,1-.25.6l-.07.13-5.28,9.7A9.06,9.06,0,0,1,39,34.63l-7.58,3.83-.08,0-.07,0,0,0h-.07l-.08,0h0l-.17,0h0l-.12,0h-.11a.74.74,0,0,1-.21,0h-.11l-.08,0a1,1,0,0,1-.17,0l-.1,0-.07,0h0s0,0,0,0l-.05,0-.08,0-.07,0-.93-.06-1.34-1.08-5.85,3.08,0,1.67-.21.05-.08,0-.09,0-.13,0-.08,0h-.19l-.34,0-.36,0a3.86,3.86,0,0,1-.95-.08l-.21,0-.19-.06L18.44,42l-.87-.08-.69.42V39.67c0,.37-.36.69-.9.88v2.14h-.07l-.29.06h0l-.14,0a5.92,5.92,0,0,1-.62.06h-.08a3.25,3.25,0,0,1-.54,0,1.52,1.52,0,0,1-.21,0l-.2,0-.28-.11-.09-.05-.11-.08a.52.52,0,0,1-.11-.1l-.07-.07-.33-.66,0-.07,0,0s0,0,0-.06l0-.08,0-.09,0,0-.05-.08a1.09,1.09,0,0,0-.08-.15l-.06-.1c-.1-.18-.23-.38-.37-.6a9,9,0,0,0-.77-1c-.1-.11-.2-.23-.31-.33l-.16-.17-.34-.3-.18-.15,0,0h0a.09.09,0,0,0-.06,0l0,0-.31-.12A8.39,8.39,0,0,0,8.92,38l-.15,0-.24,0-.18,0-.29-.05-.31-.06-.18,0-.76-.12c-1-.16-2.34-.34-4.06-.53l-.29,0-.13,0H2.27a2.63,2.63,0,0,1-.52-.17l-.14-.07-.14-.09-.09-.07-.08-.08a.7.7,0,0,1-.2-.39V33.73s0,0,0,0h0a.29.29,0,0,1,0-.09,0,0,0,0,1,0,0,.05.05,0,0,1,0,0,.08.08,0,0,1,0,0l.06-.09,0,0,0,0,0,0a1.73,1.73,0,0,1,.2-.15l.05,0,0,0a.31.31,0,0,1,.1-.05L1.84,33l.1,0s0,0,0,0l.07,0H2.1l.1,0,.18,0h.16v-.65c0-.06,0-.11,0-.16s0-.07,0-.1l0-.11s0,0,0-.06l0-.05.06-.13a.35.35,0,0,1,.05-.08l0-.06a1.58,1.58,0,0,1,.12-.15A.34.34,0,0,1,3,31.2a1.29,1.29,0,0,1,.3-.22l2.2-1.15.83-.43h0V27.05h0l0,0s0,0,0,0a.34.34,0,0,0,0-.11.36.36,0,0,0,0-.09.49.49,0,0,0,0-.11s0,0,0-.06a.69.69,0,0,0-.05-.13c0-.06,0-.11,0-.18a.5.5,0,0,1,0-.13c0-.11-.06-.22-.09-.35s0-.06,0-.09a.36.36,0,0,1,0-.1,2.87,2.87,0,0,1,0-.31h0s0-.11,0-.17,0-.11,0-.17a.31.31,0,0,1,0-.1v-.11a4.56,4.56,0,0,1,.18-1.43A1,1,0,0,1,6,23.1a1.82,1.82,0,0,1,.11-.3,3.48,3.48,0,0,1,.21-.44L9,17.41l0-.09a0,0,0,0,1,0,0c0-.09.08-.25.16-.45l.06-.19a1.17,1.17,0,0,0,.05-.11l.07-.17a2.45,2.45,0,0,1,.12-.31l.12-.26a2,2,0,0,1,.09-.22l.33-.69.09-.17.09-.17c0-.11.12-.22.18-.34l.09-.16.22-.38.11-.18c.07-.12.14-.24.23-.37l.12-.19.2-.3c.23-.35.48-.7.76-1.05.06-.09.14-.17.21-.26a4,4,0,0,1,.26-.32l.32-.37c.18-.2.36-.39.55-.58l.18-.18.2-.19.2-.18c.13-.13.27-.25.4-.36L14.67,9c.14-.12.29-.23.44-.34l.46-.34.23-.15a1.76,1.76,0,0,1,0-.19l0-.15A3.29,3.29,0,0,1,16,7.3a4.22,4.22,0,0,1,.37-.78,2.87,2.87,0,0,1,.28-.43L16.76,6a.42.42,0,0,1,.11-.13L17,5.7a3,3,0,0,1,.51-.41l.15-.09A3.54,3.54,0,0,1,18,5l.2-.07.21-.06.22,0h0a3.4,3.4,0,0,1,.46-.06l.07,0,.05,0a4,4,0,0,1,.49.42l.21.2.35.34c.12.11.24.23.35.35a2.39,2.39,0,0,1,.22.23c-.22,0-2.16-.18-2.29,2.61v3.4a6.44,6.44,0,0,1,3.1-1.28l6.44,3.51.45-.59.18-.22.12-.14c.16-.19.32-.36.48-.52l.11-.11.06-.06.08-.08.09-.07a1.22,1.22,0,0,1,.17-.15l.13-.11,0,0,.16-.12,0,0,.13-.1.26-.18.05,0L30.8,12a.6.6,0,0,1,.15-.09l.13-.07.17-.09.17-.08h0l.13-.06.06,0,.12,0a1.65,1.65,0,0,1,.69-.09h.24l.08,0,.09,0,.09,0h0l.07,0,.06,0,.06,0,.06,0,0,0,.06,0h0l0,0,.11.09.1.09s0,0,.06.06l1.72,1.87h0l0,.05,0,0v0l0,.06a2.26,2.26,0,0,1,.16.21,1.56,1.56,0,0,1,.14.19l0,.06a.35.35,0,0,0,0,.08l.09.15a2.25,2.25,0,0,0-2.64-.11c-1.83.94-2.7,3.95-3.14,5,.19-.19,3.7-4.27,6.33-2.67l1.78,1.8,3.22-1.63.06-.1s0,0,0,0a4.75,4.75,0,0,1,.64-.84l0,0,.08-.08a2.17,2.17,0,0,1,.36-.31l.2-.15h0l.22-.13a2.5,2.5,0,0,1,.61-.24l.07,0a1.3,1.3,0,0,1,.34,0,.76.76,0,0,1,.16,0l.14,0,.06,0h0l2,.85.38.16.16.07.2.08.14.06.07,0,0,0h0a1.57,1.57,0,0,1,.25.14l.12.08.09.07.06.06.07.07.06.07a.86.86,0,0,1,.07.1.1.1,0,0,1,0,.05l0,0,.08.15a1.09,1.09,0,0,1,.08.15l.06.13a3.36,3.36,0,0,1,.14.48s0,.06,0,.09a1.36,1.36,0,0,1,0,.29.06.06,0,0,1,0,0C48.77,18.64,48.78,18.73,48.78,18.83Z"></path><path class="cls-3" d="M26.48,17.32l1-1.69c.23-.36.45-.7.67-1s.3-.41.45-.59a7.3,7.3,0,0,1,3.15-2.48,1.78,1.78,0,0,1,1.9.48"></path><path class="cls-4" d="M48.13,21.23,42.85,31A9.1,9.1,0,0,1,39,34.63l-7.57,3.83a1.71,1.71,0,0,1-1.78,0c-.88-.6-1.21-2.21-.05-4.51l5.64-10.2a8.65,8.65,0,0,1,3.66-3.53l7-3.55a1.86,1.86,0,0,1,1.55-.12h0C48.72,17,49.33,18.92,48.13,21.23Z"></path><path class="cls-3" d="M8.36,22.93l2.36-4.32A15.44,15.44,0,0,1,15.8,10.4"></path><path class="cls-5" d="M10.44,26.23v5.41l-.2.26-.6.79h0L9.57,33a4.38,4.38,0,0,1-1.21.16c-1.15,0-2.08-.38-2.08-.85v0h0V29.4h0V26.33c.12.42,1,.75,2.06.75S10.44,26.7,10.44,26.23Z"></path><path class="cls-4" d="M28.75,38.37l-7,3.59-.25.08,0-1.67,5.85-3.08Z"></path><path class="cls-3" d="M28.75,38.37l-7,3.59-.25.08,0-1.67,5.85-3.08Z"></path><path class="cls-3" d="M47.49,16.52a1.86,1.86,0,0,0-1.55.12l-7,3.55a8.65,8.65,0,0,0-3.66,3.53l-5.64,10.2c-1.16,2.3-.83,3.91.05,4.51l-.93-.06-2-1.59-.49-.39V35.27a5.48,5.48,0,0,1,.37-2.06,6.44,6.44,0,0,1,1.48-2.28c.1-.09.2-.16.29-.23a2.85,2.85,0,0,1,1.1-.54l4-7.29a8.62,8.62,0,0,1,3.67-3.53l1.1-.56,3.22-1.63.06-.1s0,0,0,0a4.75,4.75,0,0,1,.64-.84l0,0a.3.3,0,0,1,.08-.08,3.65,3.65,0,0,1,.36-.31l.2-.14h0l.22-.13a3,3,0,0,1,.61-.24l.07,0a1.11,1.11,0,0,1,.64.05l.06,0h0Z"></path><path class="cls-3" d="M10.44,26.23c0,.47-.93.85-2.08.85s-1.94-.33-2.06-.75c0,0,0,0,0-.06h0v0c0-.46.93-.84,2.08-.84a4.26,4.26,0,0,1,1.38.21,2.08,2.08,0,0,1,.3.13C10.29,25.87,10.44,26.05,10.44,26.23Z"></path><path class="cls-6" d="M18.84,15.43,17.6,20.1v3.08l-7.16,8.46V26.23c0-.18-.15-.36-.4-.5l2.59-3Z"></path><polygon class="cls-6" points="24.76 24.19 24.79 26.6 18.2 34.02 12.37 36.97 13.4 33.53 14.17 32.66 21.28 24.58 26 19.23 24.76 24.19"></polygon><ellipse class="cls-7" cx="31.67" cy="35.27" rx="1.46" ry="1.06" transform="translate(-13.9 48.33) rotate(-64.08)"></ellipse><ellipse class="cls-7" cx="46.07" cy="19.73" rx="1.46" ry="1.06" transform="translate(8.18 52.54) rotate(-64.08)"></ellipse><polyline class="cls-3" points="26 19.23 14.17 32.66 13.4 33.53 12.37 36.97"></polyline><path class="cls-3" d="M48.13,21.23,42.85,31A9.1,9.1,0,0,1,39,34.63l-7.57,3.83a1.71,1.71,0,0,1-1.78,0c-.88-.6-1.21-2.21-.05-4.51l5.64-10.2a8.65,8.65,0,0,1,3.66-3.53l7-3.55a1.86,1.86,0,0,1,1.55-.12h0C48.72,17,49.33,18.92,48.13,21.23Z"></path><path class="cls-6" d="M28.39,26.11l0,4.59c-.09.07-.19.14-.29.23a6.44,6.44,0,0,0-1.48,2.28L15.82,38.75,17.3,35l.9-1,6.58-7.42,4.85-5.45Z"></path><polyline class="cls-3" points="29.63 21.15 18.2 34.02 17.3 35.03 15.82 38.75"></polyline><path class="cls-3" d="M17.6,23.18l-7.16,8.46V26.23c0-.18-.15-.36-.4-.5l2.59-3,6.21-7.27"></path><ellipse class="cls-3" cx="2.99" cy="33.78" rx="1.88" ry="1"></ellipse><path class="cls-3" d="M16.88,39.67c0,.37-.36.69-.9.88a3.44,3.44,0,0,1-1.11.18,2.15,2.15,0,0,1-2-.82l0,0a.78.78,0,0,1,0-.22c0-.34.31-.64.79-.83l.24-.09a3.77,3.77,0,0,1,1-.13C16,38.62,16.88,39.09,16.88,39.67Z"></path><polyline class="cls-3" points="3.6 34.73 7.17 34.5 8.95 35.3 13.46 37.5 13.88 38.75"></polyline><path class="cls-3" d="M12.82,41.67l.09-1.76,0,0"></path><path class="cls-7" d="M16.88,39.67V42.3l-.47.28h0l-.22,0h0l-.14,0h0V40.55C16.52,40.36,16.88,40,16.88,39.67Z"></path><path class="cls-6" d="M21.26,22.34l0,2.24-7.11,8.08L9,35.3,9.57,33l.06-.25h0l.6-.79.2-.26,7.16-8.46,4.91-5.81Z"></path><path class="cls-3" d="M16.88,40.64l1.24-.27s2.43.51,3.44,0"></path><polyline class="cls-3" points="20.89 6.38 20.9 6.38 20.91 6.38"></polyline><path class="cls-7" d="M12.63,22.7l-2.59,3a2.08,2.08,0,0,0-.3-.13A3.39,3.39,0,0,1,12.63,22.7Z"></path><path class="cls-3" d="M8.57,25.39s.44-2.78,3-3.25l1.07.57"></path><path class="cls-3" d="M22.51,17.37,10.44,31.64l-.2.26-.6.79h0L9.57,33,9,35.3"></path><path class="cls-8" d="M43.29,25.85A8.21,8.21,0,0,1,42,29.38c-1.77,2.76-4.61,4.09-6.35,3s-1.73-4.25,0-7A8.42,8.42,0,0,1,37.85,23Z"></path><ellipse class="cls-3" cx="38.83" cy="27.36" rx="5.92" ry="3.75" transform="translate(-5.16 45.3) rotate(-57.35)"></ellipse><line class="cls-3" x1="43.16" y1="16.34" x2="41.55" y2="17.15"></line><line class="cls-3" x1="29.53" y1="30.16" x2="27.92" y2="33.08"></line><path class="cls-7" d="M43.29,25.85,37.85,23c1.46-1.06,3-1.36,4.18-.63A3.51,3.51,0,0,1,43.29,25.85Z"></path><path class="cls-3" d="M43.29,25.85,37.85,23c1.46-1.06,3-1.36,4.18-.63A3.51,3.51,0,0,1,43.29,25.85Z"></path><path class="cls-7" d="M36.55,17c-2.63-1.6-6.14,2.48-6.33,2.67.44-1,1.31-4,3.14-5a2.25,2.25,0,0,1,2.64.11.35.35,0,0,1,0,.08c.05.08.09.16.13.24a2.62,2.62,0,0,1,.18.43h0c0,.05,0,.11,0,.17l0,.17h0Z"></path><path class="cls-7" d="M21.75,8.05l-.05,3.06a6.44,6.44,0,0,0-3.1,1.28V9c.13-2.79,2.07-2.63,2.29-2.61l.12.11.23.24.12.14A1.88,1.88,0,0,1,21.75,8.05Z"></path><path class="cls-3" d="M21,6.49l-.12-.11h0Z"></path><line class="cls-3" x1="15.8" y1="8.13" x2="15.8" y2="11.85"></line><polyline class="cls-3" points="15.98 42.69 16.41 42.58 16.88 42.3"></polyline><line class="cls-3" x1="6.29" y1="29.4" x2="6.28" y2="32.23"></line><path class="cls-3" d="M21.76,11.1H21.7"></path><path class="cls-3" d="M19.15,4.78c-2.66.13-3.33,2.88-3.35,3.35l-.23.15-.46.34L14.68,9l-.21.18-.41.36-.2.18-.19.19-.19.18-.54.58-.33.37-.26.32-.21.26c-.27.35-.53.71-.76,1.05l-.2.3-.12.19-.23.37-.11.18-.22.38-.09.17-.18.34-.09.17s-.05.11-.08.16l-.33.7a2,2,0,0,0-.1.21l-.11.26c0,.11-.09.22-.13.32l-.07.16a.76.76,0,0,0,0,.11c0,.07,0,.13-.07.19s-.13.36-.16.45a0,0,0,0,0,0,0l0,.09L6.33,22.36a4.54,4.54,0,0,0-.21.45c0,.1-.08.19-.11.29a2,2,0,0,0-.07.23,4.92,4.92,0,0,0-.18,1.43.49.49,0,0,0,0,.12V25c0,.05,0,.11,0,.16s0,.12,0,.17h0c0,.1,0,.2,0,.3a.3.3,0,0,0,0,.1.29.29,0,0,0,0,.09,3.21,3.21,0,0,0,.08.36.5.5,0,0,1,0,.13l.06.17c0,.05,0,.09,0,.13a.14.14,0,0,1,0,.06,1.17,1.17,0,0,0,0,.11l0,.09a.58.58,0,0,0,0,.11v0l0,0h0V29.4h0l-.83.43L3.26,31A.86.86,0,0,0,3,31.2l-.07.06-.12.15,0,.06,0,.08a.38.38,0,0,0-.06.13.14.14,0,0,0,0,.06s0,0,0,.05l0,.11s0,.07,0,.1,0,.11,0,.16v.65h0l-.13,0-.19,0-.1,0-.07,0-.07,0L1.84,33l-.12,0-.1.05,0,0-.05,0a1.73,1.73,0,0,0-.2.15l0,0a0,0,0,0,0,0,0l0,0-.06.09s0,0,0,0l0,0s0,0,0,0l0,.09v0a.43.43,0,0,1,0,.05V36.1a.8.8,0,0,0,.2.4l.08.07.1.08.13.08.14.07a2.86,2.86,0,0,0,.52.17l.06,0,.13,0,.3,0c1.71.2,3,.37,4.06.53l.75.12.18,0,.31.06h0l.29.05.18,0,.25,0,.15,0c.42.1.71.17.92.24l.31.12h0l.05,0,.06,0h0l0,0,.18.15h0l.34.31L11,39l.3.33a9,9,0,0,1,.77,1c.14.21.27.41.37.59h0l.06.1h0a1.09,1.09,0,0,1,.08.15.35.35,0,0,1,.05.08l0,0,0,.1,0,.08,0,.05,0,0,0,.07h0l.33.66.06.07.11.09.12.08.08.05a1.36,1.36,0,0,0,.28.11h0l.2,0h0l.21,0a3.32,3.32,0,0,0,.55,0h.07c.22,0,.43,0,.62-.06l.14,0h0l.29-.06H16V40.55c.54-.18.9-.51.9-.87V42.3l.69-.42h0l.87.08.27.12.18.06.21,0a3.86,3.86,0,0,0,.95.08l.37,0,.34,0,.1,0H21l.07,0,.13,0h.09l.08,0,.22-.06,0-1.67,5.85-3.08,1.35,1.08.92.06.07,0,.08,0,.07,0h0l.07,0,.11,0a1.65,1.65,0,0,0,.32.06h0a.81.81,0,0,0,.22,0h.11l.11,0,.23,0,.09,0,.06,0h0l.07,0,.09,0L39,34.63A9,9,0,0,0,42.85,31l5.29-9.71.06-.13c.1-.2.18-.4.26-.59a1.09,1.09,0,0,0,0-.17l.06-.16a.65.65,0,0,1,0-.13l.06-.24,0-.15a4,4,0,0,0,0-1.45.44.44,0,0,0,0-.1,2.77,2.77,0,0,0-.27-.75l-.09-.14a.1.1,0,0,0,0-.05l0-.05L48.2,17,48.14,17l-.07-.07L48,16.83l-.09-.07-.11-.08a1.65,1.65,0,0,0-.26-.14l-3-1.28,0,0-.06,0-.14,0-.15,0a1,1,0,0,0-.34,0l-.08,0a2.52,2.52,0,0,0-.61.25L43,15.6h0l-.2.14a3.65,3.65,0,0,0-.36.31l-.08.08,0,0a5.81,5.81,0,0,0-.64.84l0,0-.06.09-3.22,1.63L36.55,17l-.12-1.1h0a.55.55,0,0,0,0-.17,1.36,1.36,0,0,0,0-.17h0c0-.14-.11-.28-.17-.42l-.14-.25s0,0,0-.08l-.1-.15,0-.07a.18.18,0,0,0,0-.07.94.94,0,0,0-.14-.19,1.92,1.92,0,0,0-.16-.21l0-.05,0,0,0,0,0,0v0h0L33.65,12,33.58,12l-.1-.09-.1-.08-.05,0h0l0,0-.06,0-.06,0,0,0-.07,0-.06,0a1.41,1.41,0,0,0-.22-.06l-.07,0H32.6l-.09,0h-.08a1.58,1.58,0,0,0-.68.09h0l-.12,0-.06,0-.13.06h0l-.17.08-.18.09-.12.07-.15.09a.67.67,0,0,0-.14.09l-.05,0-.26.17-.14.11h0l-.16.13,0,0-.13.11-.17.15a.6.6,0,0,0-.08.08l-.08.08a1.29,1.29,0,0,0-.17.16c-.16.16-.33.33-.49.52l-.12.14-.18.22-.45.59-6.43-3.51.05-3a1.89,1.89,0,0,0-.52-1.33A13.74,13.74,0,0,0,19.15,4.78Z"></path><path class="cls-9" d="M36.89,56.65c-3.25.87-5.9-1.07-5.9-4.33a8.27,8.27,0,0,1,5.9-7.48c3.25-.87,5.9,1.07,5.9,4.32a8.28,8.28,0,0,1-5.9,7.49Z"></path><path class="cls-9" d="M40,48.1l-4,4.08a.47.47,0,0,1-.2.12.25.25,0,0,1-.25,0l-1.52-1.42"></path></g></g></svg> 