<?xml version="1.0" encoding="UTF-8"?> <svg xmlns="http://www.w3.org/2000/svg" viewBox="0 0 51.24 66"><defs><style>.cls-1{fill:#e5e5e5;}.cls-2{fill:#fff;}.cls-3{fill:#ddd;}.cls-4{fill:#1b1c21;}.cls-10,.cls-11,.cls-5{fill:#0066b5;}.cls-6,.cls-7,.cls-8{fill:none;stroke-linecap:round;}.cls-6{stroke:#0066b5;}.cls-6,.cls-7{stroke-miterlimit:10;stroke-width:2px;}.cls-7{stroke:#fff;}.cls-8{stroke:#0066b5;stroke-linejoin:round;stroke-width:0.5px;}.cls-9{fill:#0066b5;}.cls-10,.cls-9{opacity:0.3;}.cls-11{opacity:0.4;}.cls-12{fill:#fff8f8;}</style></defs><g id="Layer_2" data-name="Layer 2"><g id="Layer_1-2" data-name="Layer 1"><path class="cls-1" d="M33.38,1V34.29L13,39.75a5.58,5.58,0,0,0-4,5.06v5.3a5.22,5.22,0,0,1-1.18,3.13A5.52,5.52,0,0,1,5,55.17a3,3,0,0,1-4-2.93V9.68Z"></path><path class="cls-2" d="M49.36,34V56.32l-3.24-3-3.24,4.75-3.24-3L36.4,59.8l-3.24-3-3.23,4.75-3.24-3-3.24,4.75-3.23-3L17,65V42.67a3,3,0,0,0-1.17-2.51A3.34,3.34,0,0,0,13,39.75l20.4-5.46,12-3.21a3.3,3.3,0,0,1,2.83.41A3.06,3.06,0,0,1,49.36,34Z"></path><path class="cls-3" d="M33.38,1V34.29l12-3.22a4.08,4.08,0,0,1,1-.13,3.07,3.07,0,0,1,1.8.55A3,3,0,0,1,49.36,34V56.32l-3.24-3-3.24,4.75-3.24-3L36.4,59.8l-3.23-3-3.24,4.75-3.24-3-3.23,4.76-3.24-3L17,65V42.68a2.87,2.87,0,0,0-3-3.07,4.1,4.1,0,0,0-1,.14,5.59,5.59,0,0,0-4,5.07v5.29a5.23,5.23,0,0,1-1.17,3.14A5.64,5.64,0,0,1,5,55.18a4.32,4.32,0,0,1-1,.14,2.88,2.88,0,0,1-3-3.07V9.68L33.38,1m0-1a1.15,1.15,0,0,0-.26,0L.74,8.71a1,1,0,0,0-.74,1V52.25a3.88,3.88,0,0,0,4,4.07,4.84,4.84,0,0,0,1.29-.18A6.47,6.47,0,0,0,8.6,53.87,6.23,6.23,0,0,0,10,50.11V44.82a4.6,4.6,0,0,1,3.26-4.1,2.85,2.85,0,0,1,.76-.11,1.88,1.88,0,0,1,2,2.07V65a1,1,0,0,0,1.83.56l2.58-3.79L22.77,64a1,1,0,0,0,.69.27h.11a1,1,0,0,0,.71-.43L26.86,60l2.39,2.22a1,1,0,0,0,.68.27H30a1,1,0,0,0,.72-.43l2.58-3.78,2.38,2.22a1,1,0,0,0,.68.27h.12a1,1,0,0,0,.71-.43l2.58-3.79,2.39,2.22a1,1,0,0,0,.68.27H43a1,1,0,0,0,.72-.43l2.58-3.79,2.39,2.23a1,1,0,0,0,.68.26.92.92,0,0,0,.4-.08,1,1,0,0,0,.6-.92V34a3.87,3.87,0,0,0-4-4.06,4.69,4.69,0,0,0-1.28.17L34.38,33V1A1,1,0,0,0,34,.21,1,1,0,0,0,33.38,0Z"></path><path class="cls-4" d="M17,42.65v9.29L5,55.15a5.58,5.58,0,0,0,2.82-1.93A5.3,5.3,0,0,0,9,50.08V44.79a5.57,5.57,0,0,1,4-5.06,3.34,3.34,0,0,1,2.83.4A3.05,3.05,0,0,1,17,42.65Z"></path><path class="cls-5" d="M7,28.29l.78-1.42a2,2,0,0,0,2,.66,1.84,1.84,0,0,0,.9-.55,1.27,1.27,0,0,0,.38-.89.57.57,0,0,0-.33-.57,5.58,5.58,0,0,0-1.16-.2A3.57,3.57,0,0,1,8.09,25a1.51,1.51,0,0,1-.7-1.41A3,3,0,0,1,8,21.77a3.25,3.25,0,0,1,1.51-1.2v-.91l1.17-.32v.89a2.8,2.8,0,0,1,.89,0,2.15,2.15,0,0,1,1,.52l-.89,1.32a1.53,1.53,0,0,0-1.51-.43,1.43,1.43,0,0,0-.75.47,1.06,1.06,0,0,0-.32.75.58.58,0,0,0,.24.51,2.82,2.82,0,0,0,1.18.25,3.62,3.62,0,0,1,1.41.32,1.52,1.52,0,0,1,.78,1.49,3.64,3.64,0,0,1-.84,2.19,4.36,4.36,0,0,1-.48.54,3.24,3.24,0,0,1-.71.41v1l-1.17.32V29A2.57,2.57,0,0,1,8,29,2.4,2.4,0,0,1,7,28.29Z"></path><line class="cls-6" x1="28.68" y1="19.24" x2="17.3" y2="22.29"></line><line class="cls-7" x1="25.67" y1="23.77" x2="17.45" y2="25.97"></line><path class="cls-2" d="M34,40.68l0,2.4,0-1.92a1.15,1.15,0,0,0-.24-.74Z"></path><path class="cls-2" d="M51,47.93v0c0,.06,0,.12,0,.19s0,.06,0,.09a.06.06,0,0,1,0,0,1.13,1.13,0,0,1,0,.18.29.29,0,0,1,0,.09.83.83,0,0,1,0,.15.29.29,0,0,1,0,.09l0,.1a.42.42,0,0,1,0,.1,3.89,3.89,0,0,1-.16.38.25.25,0,0,1,0,.07l-3.32,6.1a5.65,5.65,0,0,1-2.4,2.32L40.1,60.27l-.05,0,0,0h-.07l0,0h0l-.11,0H39.6a.33.33,0,0,1-.14,0h-.12l-.1,0-.07,0,0,0h-.05l0,0,0,0-.59,0-.84-.68-3.68,1.94v1l-.14,0h-.1l-.09,0h-.16l-.22,0h-.23a2,2,0,0,1-.59,0l-.14,0-.11,0-.17-.07-.54,0-.44.26V61c0,.23-.22.43-.56.55v1.34h-.05l-.18,0h-.1a2.34,2.34,0,0,1-.39,0h-.05a1.93,1.93,0,0,1-.34,0l-.13,0L29,63l-.17-.08-.06,0-.07-.06a.13.13,0,0,1-.07-.06l0,0-.21-.42a.11.11,0,0,1,0,0s0,0,0,0l0,0,0,0a.14.14,0,0,0,0-.06s0,0,0,0l0,0a.41.41,0,0,0,0-.09.21.21,0,0,0,0-.06,4.29,4.29,0,0,0-.23-.38,6.37,6.37,0,0,0-.49-.63,1.8,1.8,0,0,0-.19-.21l-.1-.1-.22-.19a.48.48,0,0,0-.11-.09s0,0,0,0h0l0,0h0l-.2-.08L25.94,60l-.09,0-.16,0-.11,0-.18,0-.2,0-.11,0-.47-.08c-.65-.1-1.48-.21-2.55-.33l-.19,0h-.12a2.55,2.55,0,0,1-.33-.11l-.08,0a.28.28,0,0,1-.09-.06l-.06,0-.05,0a.37.37,0,0,1-.12-.24V57.27h0a.09.09,0,0,1,0,0s0,0,0,0a0,0,0,0,1,0,0s0,0,0,0l0-.06,0,0a0,0,0,0,1,0,0l0,0a.63.63,0,0,1,.12-.1l0,0h0l.07,0,.07,0,.06,0h0l0,0h0l.07,0,.11,0h.1v-.4s0-.07,0-.1,0-.05,0-.07a.14.14,0,0,1,0-.06V56a.36.36,0,0,1,0-.09.17.17,0,0,1,0-.05l0,0a.39.39,0,0,1,.08-.1l0,0a.83.83,0,0,1,.18-.13l1.38-.73.53-.27h0V53.09h0v0s0,0,0,0l0-.07,0-.06a.25.25,0,0,0,0-.07v0a.2.2,0,0,1,0-.08l0-.11a.19.19,0,0,1,0-.08L24,52.32s0,0,0-.06,0,0,0-.06l0-.2h0a.34.34,0,0,1,0-.1.41.41,0,0,1,0-.11v-.06a.17.17,0,0,1,0-.07,2.9,2.9,0,0,1,.12-.9.83.83,0,0,1,0-.15,1.34,1.34,0,0,1,.07-.18,1.75,1.75,0,0,1,.13-.28L26,47A.28.28,0,0,1,26,47h0c0-.06.05-.16.1-.29s0-.08,0-.12l0-.07,0-.1.08-.2.07-.16.06-.14c.07-.13.14-.28.21-.43l.05-.11.06-.1.12-.22.05-.1.14-.24.07-.11c0-.08.09-.16.14-.24l.08-.11.12-.19q.22-.33.48-.66l.13-.17.17-.2c.06-.08.13-.15.2-.23l.34-.36.12-.12.12-.12.13-.11.25-.23.14-.11.27-.21a3.15,3.15,0,0,1,.29-.22l.14-.09s0-.07,0-.12l0-.1a2,2,0,0,1,.09-.31,2.66,2.66,0,0,1,.23-.49,3.1,3.1,0,0,1,.18-.26l.06-.09.07-.08.08-.08a2.78,2.78,0,0,1,.32-.26l.1-.06a1.33,1.33,0,0,1,.24-.11l.13,0,.13,0,.14,0h0a2.58,2.58,0,0,1,.29,0l0,0,0,0a2.33,2.33,0,0,1,.31.26.86.86,0,0,0,.14.13l.21.21.22.22.14.15c-.14,0-1.36-.12-1.44,1.64v2.13a4.14,4.14,0,0,1,1.95-.8L38,45.29l.28-.38.11-.13.08-.09.3-.33.07-.06,0,0a.12.12,0,0,1,.05,0s0,0,0-.05l.11-.09.08-.07,0,0,.1-.08h0l.09-.06.16-.11,0,0,.09-.06.1,0,.07-.05.11,0,.11-.05h0l.09,0h0l.08,0a1.07,1.07,0,0,1,.43-.06H41l.05,0h0l0,0,0,0h0l0,0h0l0,0h0l0,0,.06.05.06.06,0,0,1.07,1.17h0l0,0,0,0h0l0,0,.1.13a.62.62,0,0,1,.09.12l0,0,0,0,.06.1a1.41,1.41,0,0,0-1.66-.07c-1.15.59-1.7,2.49-2,3.14.12-.13,2.33-2.69,4-1.68l1.12,1.13,2-1,0-.06v0a3.49,3.49,0,0,1,.41-.53l0,0,0,0L47.2,46l.13-.09h0l.14-.08a1.61,1.61,0,0,1,.38-.16h0a.74.74,0,0,1,.21,0h.1l.09,0,0,0h0l1.24.53.24.1.1,0,.12.05a.19.19,0,0,1,.09,0l0,0h0a.83.83,0,0,1,.16.09l.08.05,0,0,0,0,0,0,0,0,.05.06,0,0,0,0a.41.41,0,0,0,.05.09s0,.07,0,.1l0,.08a1.32,1.32,0,0,1,.09.3l0,.06c0,.06,0,.12,0,.18v0C51,47.81,51,47.87,51,47.93Z"></path><path class="cls-8" d="M37,47l.63-1.06c.14-.23.28-.44.41-.63s.19-.26.29-.38a4.57,4.57,0,0,1,2-1.55,1.11,1.11,0,0,1,1.19.3"></path><path class="cls-9" d="M50.58,49.44l-3.32,6.1a5.65,5.65,0,0,1-2.4,2.32L40.1,60.27a1.09,1.09,0,0,1-1.12,0c-.55-.38-.76-1.39,0-2.83L42.5,51a5.45,5.45,0,0,1,2.3-2.21l4.4-2.23a1.18,1.18,0,0,1,1-.08h0C51,46.8,51.33,48,50.58,49.44Z"></path><path class="cls-8" d="M25.59,50.51l1.48-2.72a9.75,9.75,0,0,1,3.19-5.15"></path><path class="cls-10" d="M26.9,52.58V56l-.13.17-.38.49h0l0,.16a2.93,2.93,0,0,1-.76.09c-.72,0-1.31-.23-1.31-.53v0h0V54.57h0V52.65c.08.26.63.47,1.3.47S26.9,52.88,26.9,52.58Z"></path><path class="cls-9" d="M38.4,60.21,34,62.47l-.15.05V61.47l3.68-1.94Z"></path><path class="cls-8" d="M38.4,60.21,34,62.47l-.15.05V61.47l3.68-1.94Z"></path><path class="cls-8" d="M50.18,46.48a1.18,1.18,0,0,0-1,.08l-4.4,2.23A5.45,5.45,0,0,0,42.5,51L39,57.42c-.73,1.44-.52,2.45,0,2.83l-.58,0-1.24-1L36.85,59v-.7A3.55,3.55,0,0,1,37.09,57,3.92,3.92,0,0,1,38,55.54a1.19,1.19,0,0,1,.18-.15,1.78,1.78,0,0,1,.69-.34l2.53-4.58a5.49,5.49,0,0,1,2.31-2.22l.69-.35,2-1,0-.06v0a3.49,3.49,0,0,1,.41-.53l0,0,0,0L47.2,46l.13-.09h0l.14-.08a1.45,1.45,0,0,1,.38-.16h0a.74.74,0,0,1,.21,0l.19,0,0,0h0Z"></path><path class="cls-8" d="M26.9,52.58c0,.3-.59.54-1.31.54s-1.22-.21-1.3-.47c0,0,0,0,0,0h0v0c0-.29.59-.53,1.31-.53a2.68,2.68,0,0,1,.86.13l.19.09C26.8,52.36,26.9,52.47,26.9,52.58Z"></path><path class="cls-11" d="M32.17,45.79l-.78,2.94v1.93L26.9,56v-3.4c0-.11-.1-.22-.26-.31l1.63-1.9Z"></path><polygon class="cls-11" points="35.89 51.3 35.91 52.82 31.77 57.48 28.11 59.33 28.75 57.17 29.24 56.62 33.71 51.55 36.67 48.18 35.89 51.3"></polygon><ellipse class="cls-5" cx="40.23" cy="58.26" rx="0.92" ry="0.66" transform="translate(-29.75 68.98) rotate(-64.08)"></ellipse><ellipse class="cls-5" cx="49.28" cy="48.5" rx="0.92" ry="0.66" transform="translate(-15.88 71.63) rotate(-64.08)"></ellipse><polyline class="cls-8" points="36.67 48.18 29.24 56.62 28.75 57.17 28.11 59.33"></polyline><path class="cls-8" d="M50.58,49.44l-3.32,6.1a5.65,5.65,0,0,1-2.4,2.32L40.1,60.27a1.09,1.09,0,0,1-1.12,0c-.55-.38-.76-1.39,0-2.83L42.5,51a5.45,5.45,0,0,1,2.3-2.21l4.4-2.23a1.18,1.18,0,0,1,1-.08h0C51,46.8,51.33,48,50.58,49.44Z"></path><path class="cls-11" d="M38.17,52.51l0,2.88a1.19,1.19,0,0,0-.18.15A3.92,3.92,0,0,0,37.09,57l-6.81,3.48.93-2.34.56-.63,4.14-4.66,3-3.43Z"></path><polyline class="cls-8" points="38.95 49.39 31.77 57.48 31.21 58.11 30.28 60.45"></polyline><path class="cls-8" d="M31.39,50.66,26.9,56v-3.4c0-.11-.1-.22-.26-.31l1.63-1.9,3.9-4.58"></path><ellipse class="cls-8" cx="22.21" cy="57.33" rx="1.18" ry="0.63"></ellipse><path class="cls-8" d="M30.94,61c0,.23-.22.43-.56.55a2.19,2.19,0,0,1-.7.11,1.39,1.39,0,0,1-1.24-.51v0a.28.28,0,0,1,0-.13c0-.21.19-.4.5-.53l.15,0a2.33,2.33,0,0,1,.62-.08C30.37,60.37,30.94,60.66,30.94,61Z"></path><polyline class="cls-8" points="22.59 57.92 24.84 57.78 25.96 58.28 28.79 59.67 29.06 60.45"></polyline><path class="cls-8" d="M28.39,62.29l.05-1.11v0"></path><path class="cls-5" d="M30.94,61v1.65l-.29.18h0l-.14,0h0l-.09,0h0V61.58C30.72,61.46,30.94,61.26,30.94,61Z"></path><polygon class="cls-11" points="33.7 50.14 33.71 51.55 29.24 56.62 25.96 58.28 26.35 56.81 26.39 56.65 26.39 56.64 26.77 56.15 26.9 55.98 31.39 50.66 34.48 47.02 33.7 50.14"></polygon><path class="cls-8" d="M30.94,61.64l.78-.17a4.69,4.69,0,0,0,2.16,0"></path><polyline class="cls-8" points="33.46 40.11 33.47 40.11 33.47 40.11"></polyline><path class="cls-5" d="M28.27,50.37l-1.63,1.9-.19-.09A2.13,2.13,0,0,1,28.27,50.37Z"></path><path class="cls-8" d="M25.72,52.05a2.54,2.54,0,0,1,1.88-2l.67.36"></path><polyline class="cls-8" points="34.48 47.02 26.9 55.98 26.77 56.15 26.39 56.64 26.39 56.65 26.35 56.81 25.96 58.28"></polyline><path class="cls-12" d="M47.54,52.35a5.27,5.27,0,0,1-.82,2.21c-1.11,1.74-2.9,2.57-4,1.87s-1.09-2.68,0-4.41a5.36,5.36,0,0,1,1.37-1.46Z"></path><ellipse class="cls-8" cx="44.74" cy="53.29" rx="3.72" ry="2.35" transform="translate(-24.27 62.21) rotate(-57.35)"></ellipse><line class="cls-8" x1="47.45" y1="46.37" x2="46.44" y2="46.88"></line><line class="cls-8" x1="38.89" y1="55.05" x2="37.88" y2="56.88"></line><path class="cls-5" d="M47.54,52.35l-3.42-1.79a2.36,2.36,0,0,1,2.62-.4A2.22,2.22,0,0,1,47.54,52.35Z"></path><path class="cls-8" d="M47.54,52.35l-3.42-1.79a2.36,2.36,0,0,1,2.62-.4A2.22,2.22,0,0,1,47.54,52.35Z"></path><path class="cls-5" d="M43.3,46.77c-1.65-1-3.86,1.55-4,1.68.28-.65.83-2.55,2-3.14a1.41,1.41,0,0,1,1.66.07l0,0a1.09,1.09,0,0,1,.08.15,1.53,1.53,0,0,1,.11.27h0l0,.1s0,.08,0,.11h0Z"></path><path class="cls-5" d="M34,41.16l0,1.92a4.14,4.14,0,0,0-1.95.8V41.75c.08-1.76,1.3-1.66,1.44-1.64l.07.07a1.06,1.06,0,0,1,.15.15l.08.09A1.15,1.15,0,0,1,34,41.16Z"></path><path class="cls-8" d="M33.53,40.18l-.07-.07h0Z"></path><line class="cls-8" x1="30.26" y1="41.21" x2="30.26" y2="43.55"></line><polyline class="cls-8" points="30.38 62.92 30.65 62.86 30.94 62.68"></polyline><line class="cls-8" x1="24.29" y1="54.57" x2="24.28" y2="56.35"></line><path class="cls-8" d="M34,43.08h0"></path><path class="cls-8" d="M32.37,39.1a2.36,2.36,0,0,0-2.11,2.11l-.14.09a3.15,3.15,0,0,0-.29.22l-.27.21-.14.11-.25.23a.69.69,0,0,1-.13.11l-.12.12-.11.12-.35.36-.2.23-.16.2-.14.17c-.17.22-.33.44-.47.66a1.27,1.27,0,0,0-.13.19l-.08.11-.14.24-.07.11-.14.24a.31.31,0,0,1-.05.1l-.12.22s0,.07-.05.1l-.06.11-.2.43a.42.42,0,0,0-.06.14l-.08.16c0,.07,0,.14-.08.2s0,.07,0,.11l0,.06s0,.08,0,.12-.08.23-.1.29v0a.18.18,0,0,0,0,0l-1.69,3.11c0,.09-.09.19-.13.28a1.07,1.07,0,0,0-.07.19.57.57,0,0,0,0,.14,3.24,3.24,0,0,0-.12.9.17.17,0,0,1,0,.07v.06s0,.08,0,.11,0,.07,0,.1h0l0,.19s0,0,0,.06,0,0,0,.06l.06.22s0,.06,0,.08a.36.36,0,0,0,0,.11l0,.08s0,0,0,0l0,.07s0,0,0,.06l0,.07v0h0v1.48h0l-.52.28-1.39.72a1.18,1.18,0,0,0-.18.13l0,0-.08.1a.05.05,0,0,0,0,0l0,0A.2.2,0,0,0,22,56s0,0,0,0a.06.06,0,0,0,0,0,.14.14,0,0,0,0,.06s0,0,0,.07,0,.06,0,.1v.4h-.1l-.11,0-.07,0h0l0,0-.08,0-.07,0-.07,0h0l0,0a.63.63,0,0,0-.12.1l0,0,0,0,0,0,0,.06v.07s0,0,0,.06v1.52a.46.46,0,0,0,.12.24l.05,0,.06.05.09,0,.09,0a1.35,1.35,0,0,0,.32.11h0l.08,0,.19,0c1.07.12,1.9.24,2.55.34l.47.07.11,0,.2,0h0l.18,0,.11,0,.16,0,.09,0,.58.15.2.08h0l0,0h0s0,0,0,0l.12.09h0l.21.19.1.1.2.21c.18.21.34.43.48.63a4.29,4.29,0,0,1,.23.38h0a.21.21,0,0,1,0,.06h0a.41.41,0,0,1,0,.09l0,.06,0,0,0,.06,0,0,0,0v0l0,0h0l.21.41,0,0,.07.06.07,0,.06,0L29,63h0l.13,0h0l.13,0a1.93,1.93,0,0,0,.34,0h.05a2.34,2.34,0,0,0,.39,0h.1l.19,0h0V61.58c.34-.12.56-.32.56-.55v1.65l.44-.26h0l.54,0,.17.07.12,0,.13,0a2,2,0,0,0,.6,0h.22l.22,0h.25l0,0h0l.14,0V61.47l3.68-1.94.84.68.59,0,0,0,0,0,0,0h0l0,0,.07,0a.71.71,0,0,0,.2,0h0a.33.33,0,0,0,.14,0h.14l.14,0,.06,0h0l0,0,0,0,.05,0,4.76-2.41a5.69,5.69,0,0,0,2.4-2.31l3.32-6.11a.25.25,0,0,0,0-.07,3.89,3.89,0,0,0,.16-.38.42.42,0,0,0,0-.1l0-.1,0-.09a.83.83,0,0,1,0-.15.29.29,0,0,1,0-.09,2.81,2.81,0,0,0,0-.91s0,0,0-.06a1.44,1.44,0,0,0-.17-.48.41.41,0,0,1-.05-.09l0,0,0,0-.05-.06,0,0a.08.08,0,0,0,0,0,.08.08,0,0,0,0,0l0,0-.08-.05-.16-.09-1.86-.8H48.3l-.09,0-.1,0a.74.74,0,0,0-.21,0h0a1.8,1.8,0,0,0-.38.16l-.14.08h0L47.2,46l-.22.19,0,.06,0,0a2.77,2.77,0,0,0-.4.53l0,0a.15.15,0,0,0,0,.06l-2,1L43.3,46.77l-.07-.69h0s0-.07,0-.1l0-.11h0a1.19,1.19,0,0,0-.11-.26.8.8,0,0,0-.08-.16l0,0-.06-.09,0,0,0,0a.62.62,0,0,0-.09-.12l-.1-.13,0,0h0l0,0,0,0h0l-1.07-1.17,0,0-.06-.06-.06-.05,0,0h0l0,0,0,0,0,0,0,0,0,0,0,0-.13,0h-.21a1.07,1.07,0,0,0-.43.06h0l-.08,0h0l-.09,0h0l-.1.05-.12.06-.07,0-.1,0-.09.06,0,0-.16.11-.09.07h0l-.1.07,0,0-.08.07-.1.09-.06.05-.05,0-.11.1-.3.33-.08.09-.11.13-.28.38L34,43.08l0-1.92a1.16,1.16,0,0,0-.33-.83A9.86,9.86,0,0,0,32.37,39.1Z"></path></g></g></svg> 