<?xml version="1.0" encoding="UTF-8"?> <svg xmlns="http://www.w3.org/2000/svg" viewBox="0 0 54.06 61.66"><defs><style>.cls-1{fill:#0066b5;}.cls-2,.cls-4{fill:none;stroke-linejoin:round;}.cls-2{stroke:#0066b5;}.cls-3,.cls-5{fill:#0066b5;}.cls-3{opacity:0.3;}.cls-4{stroke:#cecece;}</style></defs><g id="Layer_2" data-name="Layer 2"><g id="Layer_1-2" data-name="Layer 1"><polygon class="cls-1" points="26.51 40.13 12.07 40.13 12.07 31.5 26.62 28.29 26.51 40.13"></polygon><polygon class="cls-2" points="26.51 40.13 12.07 40.13 12.07 31.5 26.62 28.29 26.51 40.13"></polygon><polygon points="16.83 38.27 13.5 38.27 13.5 35.63 16.83 34.9 16.83 38.27"></polygon><polygon points="20.78 38.27 17.45 38.27 17.45 34.82 20.78 34.09 20.78 38.27"></polygon><polygon class="cls-3" points="44.2 29.88 28.85 23.54 28.85 40.13 44.2 40.13 44.2 29.88"></polygon><polygon class="cls-2" points="44.2 29.88 28.85 23.54 28.85 40.13 44.2 40.13 44.2 29.88"></polygon><polyline class="cls-2" points="28.85 23.54 18.36 19.56 9.85 28.87 9.85 40.13"></polyline><line class="cls-2" x1="7.87" y1="40.13" x2="46.18" y2="40.13"></line><path class="cls-1" d="M42.41,31.67v8.11h.48v-7.9ZM41,31.1v8.68h.48V31.3Zm-1.39-.57v9.25h.49v-9ZM38.26,30v9.83h.48V30.16Zm-1.39-.56V39.78h.49V29.58Zm-1.38-.58v11H36V29Zm-1.38-.57V39.78h.48V28.44Zm-1.39-.57V39.78h.48V27.87Zm-1.38-.58V39.78h.48V27.3ZM30,26.53V39.78h.49V26.72Z"></path><polygon class="cls-4" points="27.03 3.59 3.32 17.28 3.32 44.66 27.03 58.35 50.74 44.66 50.74 17.28 27.03 3.59"></polygon><circle class="cls-5" cx="27.03" cy="3.32" r="3.32"></circle><circle class="cls-5" cx="50.74" cy="17.28" r="3.32"></circle><circle class="cls-5" cx="50.74" cy="44.66" r="3.32"></circle><circle class="cls-5" cx="27.03" cy="58.35" r="3.32"></circle><circle class="cls-5" cx="3.32" cy="44.66" r="3.32"></circle><circle class="cls-5" cx="3.32" cy="17.28" r="3.32"></circle></g></g></svg> 